<?xml version="1.0" encoding="UTF-8"?>
<svg version="1.1" xmlns="http://www.w3.org/2000/svg" width="280" height="280">
<path d="M0 0 C5.04345768 2.23576682 8.44365888 6.03672918 12.3125 9.875 C13.06595703 10.59558594 13.81941406 11.31617187 14.59570312 12.05859375 C15.30275391 12.75855469 16.00980469 13.45851563 16.73828125 14.1796875 C17.38837158 14.81632324 18.03846191 15.45295898 18.70825195 16.10888672 C20 18 20 18 19.77880859 20.1171875 C18.8602481 22.33785789 17.6682056 24.13947841 16.3125 26.125 C4.88995247 44.84146342 2.68564466 68.00058224 7.625 89.0625 C11.53391098 104.24768144 20.05442115 118.73325926 32 129 C32.66 129.33 33.32 129.66 34 130 C34 130.66 34 131.32 34 132 C34.52335937 132.25007812 35.04671875 132.50015625 35.5859375 132.7578125 C38.05112757 134.02630836 40.43234719 135.41028774 42.8203125 136.81762695 C62.16865729 148.15389336 84.17875963 152.85070538 106.375 147.5 C116.15396983 144.67585763 125.61777116 140.27306614 133.83984375 134.24609375 C137 132 137 132 139 132 C139 131.34 139 130.68 139 130 C140.46875 128.625 140.46875 128.625 142.5 127 C157.41385111 114.16043452 165.71006095 95.34677474 168 76 C169.03409559 58.6788988 165.5570962 44.41765638 158 29 C157.48308594 27.93523437 156.96617187 26.87046875 156.43359375 25.7734375 C155.31120974 23.50308809 154.17128062 21.24540432 153 19 C154.55778381 17.2456027 156.12094705 15.49653989 157.6875 13.75 C158.55761719 12.77546875 159.42773438 11.8009375 160.32421875 10.796875 C162.75054584 8.26074332 165.24025305 6.15487091 168 4 C169.76323505 1.87396815 169.76323505 1.87396815 171 0 C175.20636422 1.50023826 177.04208076 4.49262723 179.3125 8.125 C179.70203857 8.74318604 180.09157715 9.36137207 180.49291992 9.99829102 C195.33580455 34.23893909 200.78357077 65.07797507 194.375 92.9375 C193.68270769 95.662754 192.88602647 98.33180614 192 101 C191.78569336 101.6492041 191.57138672 102.2984082 191.35058594 102.96728516 C186.63614741 116.72973999 179.52177104 129.02452346 170 140 C169.32453125 140.81984375 168.6490625 141.6396875 167.953125 142.484375 C149.95091415 163.64025782 123.35149294 175.43077953 96 178 C66.3586129 180.17694122 37.27420703 171.38523663 14.5 152.125 C-6.09117213 133.95805775 -21.23648371 107.46197082 -23.23681641 79.71508789 C-23.84829685 63.54420964 -23.31519748 48.41300752 -18 33 C-17.67104736 31.99525635 -17.67104736 31.99525635 -17.33544922 30.97021484 C-13.76517303 20.24334009 -8.07856201 8.07856201 0 0 Z " fill="#062140" transform="translate(51,96)"/>
<path d="M0 0 C2.23815382 1.98711765 4.46081357 3.82661409 6.890625 5.56640625 C6.32442199 9.34109296 4.76793519 11.04192518 2.07421875 13.67578125 C1.31044922 14.42988281 0.54667969 15.18398438 -0.24023438 15.9609375 C-1.04267578 16.73824219 -1.84511719 17.51554687 -2.671875 18.31640625 C-3.88133789 19.50556641 -3.88133789 19.50556641 -5.11523438 20.71875 C-7.10671278 22.67487671 -9.10485221 24.62366344 -11.109375 26.56640625 C-14.76798238 24.83697973 -17.43053407 22.6770629 -20.484375 20.00390625 C-47.91721814 -3.29939821 -81.5291004 -12.51204543 -117.109375 -10.43359375 C-146.86910432 -7.71526191 -174.55585233 6.15328161 -196.109375 26.56640625 C-201.15283268 24.33063943 -204.55303388 20.52967707 -208.421875 16.69140625 C-209.17533203 15.97082031 -209.92878906 15.25023437 -210.70507812 14.5078125 C-211.41212891 13.80785156 -212.11917969 13.10789063 -212.84765625 12.38671875 C-213.82279175 11.43176514 -213.82279175 11.43176514 -214.81762695 10.45751953 C-216.109375 8.56640625 -216.109375 8.56640625 -215.94335938 6.45532227 C-214.69025035 3.61711837 -212.72288227 2.2843111 -210.296875 0.37890625 C-209.29527344 -0.40871094 -208.29367188 -1.19632813 -207.26171875 -2.0078125 C-206.22144531 -2.80832031 -205.18117188 -3.60882813 -204.109375 -4.43359375 C-202.68818359 -5.55701172 -202.68818359 -5.55701172 -201.23828125 -6.703125 C-142.12015063 -52.50563868 -55.83940251 -50.04902263 0 0 Z " fill="#40AAE0" transform="translate(242.109375,45.43359375)"/>
<path d="M0 0 C1.60858988 1.39073361 3.21302901 2.7862884 4.8125 4.1875 C6.47304862 5.52844512 8.13802764 6.86398277 9.8125 8.1875 C9.24629699 11.96218671 7.68981019 13.66301893 4.99609375 16.296875 C4.23232422 17.05097656 3.46855469 17.80507812 2.68164062 18.58203125 C1.87919922 19.35933594 1.07675781 20.13664062 0.25 20.9375 C-0.95946289 22.12666016 -0.95946289 22.12666016 -2.19335938 23.33984375 C-4.18483778 25.29597046 -6.18297721 27.24475719 -8.1875 29.1875 C-11.40253382 27.6503486 -13.75413114 25.91748455 -16.4375 23.5625 C-34.15963171 9.20731231 -55.87361737 4.77875452 -78.1875 6.1875 C-93.89340617 7.95731578 -108.05721565 14.8779585 -120.02832031 25.03759766 C-123.14162276 27.64087452 -123.92878101 28.1875 -128.1875 28.1875 C-131.43849597 25.79058918 -134.16729054 22.80990943 -137 19.9375 C-137.80115234 19.16019531 -138.60230469 18.38289063 -139.42773438 17.58203125 C-140.17990234 16.82792969 -140.93207031 16.07382813 -141.70703125 15.296875 C-142.39901611 14.60561523 -143.09100098 13.91435547 -143.80395508 13.20214844 C-145.1875 11.1875 -145.1875 11.1875 -145.03295898 9.06054688 C-139.77143427 -2.59594102 -118.87354665 -11.40534265 -107.40527344 -16.02197266 C-71.65215823 -28.76620284 -29.82318936 -24.241309 0 0 Z " fill="#40AAE0" transform="translate(205.1875,76.8125)"/>
<path d="M0 0 C2.35566493 1.86862872 4.65338361 3.77057971 6.90234375 5.765625 C1.07605471 12.92363725 -5.53595475 19.29154266 -12.09765625 25.765625 C-14.85550592 24.44479234 -17.36943271 22.96289042 -19.91015625 21.265625 C-27.57556694 16.50633155 -35.22982703 15.9294269 -44.09765625 16.765625 C-50.89581442 18.36366726 -56.09993065 20.90297307 -61.09765625 25.765625 C-66.14111393 23.52985818 -69.54131513 19.72889582 -73.41015625 15.890625 C-74.16361328 15.17003906 -74.91707031 14.44945312 -75.69335938 13.70703125 C-76.40041016 13.00707031 -77.10746094 12.30710937 -77.8359375 11.5859375 C-78.811073 10.63098389 -78.811073 10.63098389 -79.8059082 9.65673828 C-81.09765625 7.765625 -81.09765625 7.765625 -80.91796875 5.63378906 C-77.78001181 -1.51253431 -64.96460407 -6.530207 -58.09765625 -9.234375 C-37.60402146 -14.97259274 -17.4733547 -12.60373126 0 0 Z " fill="#40A9E0" transform="translate(175.09765625,114.234375)"/>
<path d="M0 0 C4.82439771 1.61568249 7.9375413 4.31624693 10.5 8.6875 C12.79146218 14.11949293 13.00561017 19.59044599 11.33984375 25.23828125 C9.14097031 30.29283448 5.90098894 33.49576662 1 36 C-4.52203469 37.6834164 -9.92596352 37.68189952 -15.2265625 35.1875 C-19.61730304 32.24744466 -23.33139108 28.00582677 -25 23 C-25.53385142 17.03523706 -25.55270149 12.04254405 -22 7 C-15.003708 0.11707384 -9.88104723 -0.99388311 0 0 Z " fill="#40A8DE" transform="translate(144,146)"/>
<path d="M0 0 C0.66 0 1.32 0 2 0 C0.61950251 3.11682419 -0.96792685 5.19592249 -3.40625 7.56640625 C-4.06753906 8.21673828 -4.72882813 8.86707031 -5.41015625 9.53710938 C-6.09980469 10.20548828 -6.78945312 10.87386719 -7.5 11.5625 C-8.86682728 12.89483725 -10.2315031 14.22938615 -11.59375 15.56640625 C-12.19896484 16.15365479 -12.80417969 16.74090332 -13.42773438 17.34594727 C-15.20303483 19.11908186 -15.20303483 19.11908186 -17 22 C-17.33 21.01 -17.66 20.02 -18 19 C-16.44221619 17.2456027 -14.87905295 15.49653989 -13.3125 13.75 C-12.44238281 12.77546875 -11.57226562 11.8009375 -10.67578125 10.796875 C-8.24988638 8.2611951 -5.7554905 6.15894101 -3 4 C-2.443125 3.2575 -1.88625 2.515 -1.3125 1.75 C-0.879375 1.1725 -0.44625 0.595 0 0 Z " fill="#04192F" transform="translate(222,96)"/>
<path d="M0 0 C0 3 0 3 -1.53125 4.82421875 C-2.1809375 5.43910156 -2.830625 6.05398437 -3.5 6.6875 C-4.1496875 7.31011719 -4.799375 7.93273438 -5.46875 8.57421875 C-5.9740625 9.04472656 -6.479375 9.51523437 -7 10 C-7.33 9.01 -7.66 8.02 -8 7 C-5.36 4.69 -2.72 2.38 0 0 Z " fill="#2C779D" transform="translate(34,44)"/>
<path d="M0 0 C0 3 0 3 -1.53125 4.60546875 C-2.1809375 5.12753906 -2.830625 5.64960937 -3.5 6.1875 C-4.1496875 6.71730469 -4.799375 7.24710937 -5.46875 7.79296875 C-5.9740625 8.19128906 -6.479375 8.58960937 -7 9 C-6.19095897 4.20719998 -3.74015409 2.86479887 0 0 Z " fill="#2D789F" transform="translate(67,79)"/>
</svg>
